<?xml version="1.0" encoding="UTF-8" standalone="no"?>
<!-- Created with Inkscape (http://www.inkscape.org/) -->

<svg
   width="186.04352mm"
   height="186.04352mm"
   viewBox="0 0 186.04352 186.04352"
   version="1.1"
   id="svg5"
   xml:space="preserve"
   inkscape:version="1.2.2 (732a01da63, 2022-12-09)"
   sodipodi:docname="dllpdf1515.svg"
   xmlns:inkscape="http://www.inkscape.org/namespaces/inkscape"
   xmlns:sodipodi="http://sodipodi.sourceforge.net/DTD/sodipodi-0.dtd"
   xmlns="http://www.w3.org/2000/svg"
   xmlns:svg="http://www.w3.org/2000/svg"><sodipodi:namedview
     id="namedview7"
     pagecolor="#ffffff"
     bordercolor="#000000"
     borderopacity="0.25"
     inkscape:showpageshadow="2"
     inkscape:pageopacity="0.0"
     inkscape:pagecheckerboard="0"
     inkscape:deskcolor="#d1d1d1"
     inkscape:document-units="mm"
     showgrid="false"
     inkscape:zoom="0.35355339"
     inkscape:cx="362.03867"
     inkscape:cy="173.94827"
     inkscape:window-width="1920"
     inkscape:window-height="991"
     inkscape:window-x="-9"
     inkscape:window-y="-9"
     inkscape:window-maximized="1"
     inkscape:current-layer="layer1" /><defs
     id="defs2"><marker
       id="DistanceX"
       orient="auto"
       refX="0"
       refY="0"
       style="overflow:visible"><path
         d="M 3,-3 -3,3 M 0,-5 V 5"
         style="stroke:#000000;stroke-width:0.5"
         id="path9329" /></marker><pattern
       id="Hatch"
       patternUnits="userSpaceOnUse"
       width="8"
       height="8"
       x="0"
       y="0"><path
         d="M8 4 l-4,4"
         stroke="#000000"
         stroke-width="0.25"
         linecap="square"
         id="path9332" /><path
         d="M6 2 l-4,4"
         stroke="#000000"
         stroke-width="0.25"
         linecap="square"
         id="path9334" /><path
         d="M4 0 l-4,4"
         stroke="#000000"
         stroke-width="0.25"
         linecap="square"
         id="path9336" /></pattern><symbol
       id="*Model_Space" /><symbol
       id="*Paper_Space" /><symbol
       id="*Paper_Space0" /></defs><g
     inkscape:label="Layer 1"
     inkscape:groupmode="layer"
     id="layer1"
     transform="translate(-11.598797,-45.920765)"><g
       inkscape:label="0"
       id="g9348"
       transform="matrix(0.26458333,0,0,0.26458333,104.62056,-158.05747)"><path
         d="m 299.58683,1031.2393 a 11.702611,11.702611 0 0 0 11.70261,11.7026 h 28.08627 a 11.702611,11.702611 0 0 0 11.70261,-11.7026 V 818.25181 A 46.810442,46.810442 0 0 0 304.26788,771.44137 H 91.280363 a 11.702611,11.702611 0 0 0 -11.702611,11.70261 v 28.08626 a 11.702611,11.702611 0 0 0 11.702611,11.70261 h 51.799167 a 46.370424,46.370424 0 0 1 32.78884,79.15927 l -96.546228,96.54623 a 23.405221,23.405221 0 0 1 -16.549991,6.85525 H -62.772151 a 23.405221,23.405221 0 0 1 -16.549991,-6.85525 l -96.546228,-96.54623 a 46.370424,46.370424 0 0 1 32.78884,-79.15927 h 51.799167 a 11.702611,11.702611 0 0 0 11.702611,-11.70261 V 783.14398 A 11.702611,11.702611 0 0 0 -91.280363,771.44137 H -304.26788 a 46.810442,46.810442 0 0 0 -46.81044,46.81044 v 212.98749 a 11.702611,11.702611 0 0 0 11.70261,11.7026 h 28.08627 a 11.702611,11.702611 0 0 0 11.70261,-11.7026 v -51.79915 a 46.370424,46.370424 0 0 1 79.15926,-32.78884 l 96.54623,96.54619 a 23.405221,23.405221 0 0 1 6.85523,16.55 v 125.5443 a 23.405221,23.405221 0 0 1 -6.85523,16.55 l -96.54623,96.5463 a 46.370424,46.370424 0 0 1 -79.15926,-32.7889 V 1213.8 a 11.702611,11.702611 0 0 0 -11.70261,-11.7026 h -28.08627 a 11.702611,11.702611 0 0 0 -11.70261,11.7026 v 212.9876 a 46.810442,46.810442 0 0 0 46.81044,46.8104 h 212.987517 a 11.702611,11.702611 0 0 0 11.702611,-11.7026 v -28.0863 a 11.702611,11.702611 0 0 0 -11.702611,-11.7026 h -51.799167 a 46.370424,46.370424 0 0 1 -32.78884,-79.1592 l 96.546228,-96.5463 a 23.405221,23.405221 0 0 1 16.549991,-6.8552 H 62.772151 a 23.405221,23.405221 0 0 1 16.549991,6.8552 l 96.546228,96.5463 a 46.370424,46.370424 0 0 1 -32.78884,79.1592 H 91.280363 a 11.702611,11.702611 0 0 0 -11.702611,11.7026 v 28.0863 a 11.702611,11.702611 0 0 0 11.702611,11.7026 H 304.26788 a 46.810442,46.810442 0 0 0 46.81044,-46.8104 V 1213.8 a 11.702611,11.702611 0 0 0 -11.70261,-11.7026 H 311.28944 A 11.702611,11.702611 0 0 0 299.58683,1213.8 v 51.7992 a 46.370424,46.370424 0 0 1 -79.15926,32.7889 l -96.54623,-96.5463 a 23.405221,23.405221 0 0 1 -6.85523,-16.55 v -125.5443 a 23.405221,23.405221 0 0 1 6.85523,-16.55 l 96.54623,-96.54619 a 46.370424,46.370424 0 0 1 79.15926,32.78884 z"
         style="fill:none;stroke:#000000"
         id="path9344" /><path
         d="m 58.854769,1122.5197 a 58.854769,58.854769 0 0 0 -117.709538,0 58.854769,58.854769 0 0 0 117.709538,0 z"
         style="fill:none;stroke:#000000"
         id="path9346" /></g></g></svg>
