<?xml version="1.0" encoding="UTF-8" standalone="no"?>
<!-- Created with Inkscape (http://www.inkscape.org/) -->

<svg
   width="188.57367mm"
   height="188.57365mm"
   viewBox="0 0 188.57367 188.57365"
   version="1.1"
   id="svg11353"
   xml:space="preserve"
   inkscape:version="1.2.2 (732a01da63, 2022-12-09)"
   sodipodi:docname="153030.svg"
   xmlns:inkscape="http://www.inkscape.org/namespaces/inkscape"
   xmlns:sodipodi="http://sodipodi.sourceforge.net/DTD/sodipodi-0.dtd"
   xmlns="http://www.w3.org/2000/svg"
   xmlns:svg="http://www.w3.org/2000/svg"><sodipodi:namedview
     id="namedview11355"
     pagecolor="#ffffff"
     bordercolor="#000000"
     borderopacity="0.25"
     inkscape:showpageshadow="2"
     inkscape:pageopacity="0.0"
     inkscape:pagecheckerboard="0"
     inkscape:deskcolor="#d1d1d1"
     inkscape:document-units="mm"
     showgrid="false"
     inkscape:zoom="0.71624579"
     inkscape:cx="127.05136"
     inkscape:cy="356.72112"
     inkscape:window-width="1920"
     inkscape:window-height="991"
     inkscape:window-x="-9"
     inkscape:window-y="-9"
     inkscape:window-maximized="1"
     inkscape:current-layer="layer1" /><defs
     id="defs11350"><marker
       id="DistanceX"
       orient="auto"
       refX="0"
       refY="0"
       style="overflow:visible"><path
         d="M 3,-3 -3,3 M 0,-5 V 5"
         style="stroke:#000000;stroke-width:0.5"
         id="path11728" /></marker><pattern
       id="Hatch"
       patternUnits="userSpaceOnUse"
       width="8"
       height="8"
       x="0"
       y="0"><path
         d="M8 4 l-4,4"
         stroke="#000000"
         stroke-width="0.25"
         linecap="square"
         id="path11731" /><path
         d="M6 2 l-4,4"
         stroke="#000000"
         stroke-width="0.25"
         linecap="square"
         id="path11733" /><path
         d="M4 0 l-4,4"
         stroke="#000000"
         stroke-width="0.25"
         linecap="square"
         id="path11735" /></pattern><symbol
       id="*Model_Space" /><symbol
       id="*Paper_Space" /><symbol
       id="*Paper_Space0" /></defs><g
     inkscape:label="Layer 1"
     inkscape:groupmode="layer"
     id="layer1"
     transform="translate(-9.1460038,-54.213174)"><g
       inkscape:label="0"
       id="g11755"
       transform="matrix(0.26458333,0,0,0.26458333,56.355565,-195.57726)"><path
         d="m -46.261759,970.68622 a 5.930995,5.930995 0 0 0 5.930995,-5.931 v -14.23438 a 5.930995,5.930995 0 0 0 -5.930995,-5.931 H -154.20586 a 23.723979,23.723979 0 0 0 -23.72398,23.72398 v 107.94408 a 5.930995,5.930995 0 0 0 5.93099,5.931 h 14.23439 a 5.930995,5.930995 0 0 0 5.93099,-5.931 v -26.2523 a 23.500974,23.500974 0 0 1 40.11868,-16.6177 l 48.930546,48.9306 a 11.861989,11.861989 0 0 1 3.474297,8.3877 v 63.627 a 11.861989,11.861989 0 0 1 -3.474297,8.3877 l -48.930546,48.9306 a 23.500974,23.500974 0 0 1 -40.11868,-16.6177 v -26.2524 a 5.930995,5.930995 0 0 0 -5.93099,-5.931 h -14.23439 a 5.930995,5.930995 0 0 0 -5.93099,5.931 v 263.3362 a 5.930995,5.930995 0 0 0 5.93099,5.931 h 14.23439 a 5.930995,5.930995 0 0 0 5.93099,-5.931 v -26.2523 a 23.500974,23.500974 0 0 1 40.11868,-16.6177 l 48.930546,48.9306 a 11.861989,11.861989 0 0 1 3.474297,8.3876 v 63.6271 a 11.861989,11.861989 0 0 1 -3.474297,8.3877 l -48.930546,48.9305 a 23.500974,23.500974 0 0 1 -40.11868,-16.6177 v -26.2523 a 5.930995,5.930995 0 0 0 -5.93099,-5.931 h -14.23439 a 5.930995,5.930995 0 0 0 -5.93099,5.931 v 107.9441 a 23.723979,23.723979 0 0 0 23.72398,23.724 h 107.944101 a 5.930995,5.930995 0 0 0 5.930995,-5.931 v -14.2344 a 5.930995,5.930995 0 0 0 -5.930995,-5.931 h -26.252312 a 23.500974,23.500974 0 0 1 -16.617698,-40.1186 l 48.93055,-48.9306 a 11.861989,11.861989 0 0 1 8.387694,-3.4743 h 63.62705 a 11.861989,11.861989 0 0 1 8.387694,3.4743 l 48.93055,48.9306 a 23.500974,23.500974 0 0 1 -16.617698,40.1186 H 46.261759 a 5.930995,5.930995 0 0 0 -5.930995,5.931 v 14.2344 a 5.930995,5.930995 0 0 0 5.930995,5.931 H 309.59793 a 5.930995,5.930995 0 0 0 5.93099,-5.931 v -14.2344 a 5.930995,5.930995 0 0 0 -5.93099,-5.931 h -26.25232 a 23.500974,23.500974 0 0 1 -16.61769,-40.1186 l 48.93055,-48.9306 a 11.861989,11.861989 0 0 1 8.38769,-3.4743 h 63.62705 a 11.861989,11.861989 0 0 1 8.38769,3.4743 l 48.93055,48.9306 a 23.500974,23.500974 0 0 1 -16.61769,40.1186 h -26.25232 a 5.930995,5.930995 0 0 0 -5.93099,5.931 v 14.2344 a 5.930995,5.930995 0 0 0 5.93099,5.931 h 107.94411 a 23.723979,23.723979 0 0 0 23.72398,-23.724 v -107.9441 a 5.930995,5.930995 0 0 0 -5.931,-5.931 h -14.23439 a 5.930995,5.930995 0 0 0 -5.93099,5.931 v 26.2523 a 23.500974,23.500974 0 0 1 -40.11867,16.6177 l -48.93055,-48.9305 a 11.861989,11.861989 0 0 1 -3.4743,-8.3877 v -63.6271 a 11.861989,11.861989 0 0 1 3.4743,-8.3876 l 48.93055,-48.9306 a 23.500974,23.500974 0 0 1 40.11867,16.6177 v 26.2523 a 5.930995,5.930995 0 0 0 5.93099,5.931 h 14.23439 a 5.930995,5.930995 0 0 0 5.931,-5.931 v -263.3362 a 5.930995,5.930995 0 0 0 -5.931,-5.931 h -14.23439 a 5.930995,5.930995 0 0 0 -5.93099,5.931 v 26.2524 a 23.500974,23.500974 0 0 1 -40.11867,16.6177 l -48.93055,-48.9306 a 11.861989,11.861989 0 0 1 -3.4743,-8.3877 v -63.627 a 11.861989,11.861989 0 0 1 3.4743,-8.3877 l 48.93055,-48.9306 a 23.500974,23.500974 0 0 1 40.11867,16.6177 v 26.2523 a 5.930995,5.930995 0 0 0 5.93099,5.931 h 14.23439 a 5.930995,5.930995 0 0 0 5.931,-5.931 V 968.31382 A 23.723979,23.723979 0 0 0 510.06555,944.58984 H 402.12144 a 5.930995,5.930995 0 0 0 -5.93099,5.931 v 14.23438 a 5.930995,5.930995 0 0 0 5.93099,5.931 h 26.25232 a 23.500974,23.500974 0 0 1 16.61769,40.11868 l -48.93055,48.9305 a 11.861989,11.861989 0 0 1 -8.38769,3.4743 h -63.62705 a 11.861989,11.861989 0 0 1 -8.38769,-3.4743 l -48.93055,-48.9305 a 23.500974,23.500974 0 0 1 16.61769,-40.11868 h 26.25232 a 5.930995,5.930995 0 0 0 5.93099,-5.931 v -14.23438 a 5.930995,5.930995 0 0 0 -5.93099,-5.931 H 46.261759 a 5.930995,5.930995 0 0 0 -5.930995,5.931 v 14.23438 a 5.930995,5.930995 0 0 0 5.930995,5.931 h 26.252312 a 23.500974,23.500974 0 0 1 16.617698,40.11868 l -48.93055,48.9305 a 11.861989,11.861989 0 0 1 -8.387694,3.4743 h -63.62705 a 11.861989,11.861989 0 0 1 -8.387694,-3.4743 l -48.93055,-48.9305 a 23.500974,23.500974 0 0 1 16.617698,-40.11868 z"
         style="fill:none;stroke:#000000"
         id="path11743" /><path
         d="M -35.027503,1420.7688 -138.57143,1317.2249 a 23.723979,23.723979 0 0 1 0,-33.5508 l 103.543927,-103.5439 a 11.861989,11.861989 0 0 1 12.827662,-2.612 59.309947,59.309947 0 0 0 77.198358,-77.1984 11.861989,11.861989 0 0 1 2.612011,-12.8276 L 161.15446,983.94825 a 23.723979,23.723979 0 0 1 33.55077,0 l 103.54393,103.54395 a 11.861989,11.861989 0 0 1 2.61201,12.8276 59.309947,59.309947 0 0 0 77.19836,77.1984 11.861989,11.861989 0 0 1 12.82766,2.612 l 86.76854,86.7686 a 47.447958,47.447958 0 0 1 0,67.1015 l -86.76854,86.7685 a 11.861989,11.861989 0 0 1 -12.82766,2.6121 59.309947,59.309947 0 0 0 -77.19836,77.1983 11.861989,11.861989 0 0 1 -2.61201,12.8277 l -103.54393,103.5439 a 23.723979,23.723979 0 0 1 -33.55077,0 L 57.610528,1513.4069 a 11.861989,11.861989 0 0 1 -2.612011,-12.8277 59.309947,59.309947 0 0 0 -77.198358,-77.1983 11.861989,11.861989 0 0 1 -12.827662,-2.6121 z"
         style="fill:none;stroke:#000000"
         id="path11745" /><path
         d="m 29.828159,1122.5197 a 29.828159,29.828159 0 0 0 -59.656318,0 29.828159,29.828159 0 0 0 59.656318,0 z"
         style="fill:none;stroke:#000000"
         id="path11747" /><path
         d="m 29.828159,1478.3794 a 29.828159,29.828159 0 0 0 -59.656318,0 29.828159,29.828159 0 0 0 59.656318,0 z"
         style="fill:none;stroke:#000000"
         id="path11749" /><path
         d="m 385.68784,1478.3794 a 29.828159,29.828159 0 0 0 -59.65631,0 29.828159,29.828159 0 0 0 59.65631,0 z"
         style="fill:none;stroke:#000000"
         id="path11751" /><path
         d="m 385.68784,1122.5197 a 29.828159,29.828159 0 0 0 -59.65631,0 29.828159,29.828159 0 0 0 59.65631,0 z"
         style="fill:none;stroke:#000000"
         id="path11753" /></g></g></svg>
