<?xml version="1.0" encoding="UTF-8" standalone="no"?>
<svg
   width="100"
   height="100"
   viewBox="0 0 100 100"
   version="1.1"
   id="svg5"
   xmlns="http://www.w3.org/2000/svg"
   xmlns:svg="http://www.w3.org/2000/svg">
  <defs
     id="defs9" />
  <g
     id="g9348"
     transform="matrix(0.14241836,0,0,0.14241836,49.999999,-109.86742)">
    <path
       d="m 299.58683,1031.2393 a 11.702611,11.702611 0 0 0 11.70261,11.7026 h 28.08627 a 11.702611,11.702611 0 0 0 11.70261,-11.7026 V 818.25181 A 46.810442,46.810442 0 0 0 304.26788,771.44137 H 91.280363 a 11.702611,11.702611 0 0 0 -11.702611,11.70261 v 28.08626 a 11.702611,11.702611 0 0 0 11.702611,11.70261 h 51.799167 a 46.370424,46.370424 0 0 1 32.78884,79.15927 l -96.546228,96.54623 a 23.405221,23.405221 0 0 1 -16.549991,6.85525 H -62.772151 a 23.405221,23.405221 0 0 1 -16.549991,-6.85525 l -96.546228,-96.54623 a 46.370424,46.370424 0 0 1 32.78884,-79.15927 h 51.799167 a 11.702611,11.702611 0 0 0 11.702611,-11.70261 V 783.14398 A 11.702611,11.702611 0 0 0 -91.280363,771.44137 H -304.26788 a 46.810442,46.810442 0 0 0 -46.81044,46.81044 v 212.98749 a 11.702611,11.702611 0 0 0 11.70261,11.7026 h 28.08627 a 11.702611,11.702611 0 0 0 11.70261,-11.7026 v -51.79915 a 46.370424,46.370424 0 0 1 79.15926,-32.78884 l 96.54623,96.54619 a 23.405221,23.405221 0 0 1 6.85523,16.55 v 125.5443 a 23.405221,23.405221 0 0 1 -6.85523,16.55 l -96.54623,96.5463 a 46.370424,46.370424 0 0 1 -79.15926,-32.7889 V 1213.8 a 11.702611,11.702611 0 0 0 -11.70261,-11.7026 h -28.08627 a 11.702611,11.702611 0 0 0 -11.70261,11.7026 v 212.9876 a 46.810442,46.810442 0 0 0 46.81044,46.8104 h 212.987517 a 11.702611,11.702611 0 0 0 11.702611,-11.7026 v -28.0863 a 11.702611,11.702611 0 0 0 -11.702611,-11.7026 h -51.799167 a 46.370424,46.370424 0 0 1 -32.78884,-79.1592 l 96.546228,-96.5463 a 23.405221,23.405221 0 0 1 16.549991,-6.8552 H 62.772151 a 23.405221,23.405221 0 0 1 16.549991,6.8552 l 96.546228,96.5463 a 46.370424,46.370424 0 0 1 -32.78884,79.1592 H 91.280363 a 11.702611,11.702611 0 0 0 -11.702611,11.7026 v 28.0863 a 11.702611,11.702611 0 0 0 11.702611,11.7026 H 304.26788 a 46.810442,46.810442 0 0 0 46.81044,-46.8104 V 1213.8 a 11.702611,11.702611 0 0 0 -11.70261,-11.7026 H 311.28944 A 11.702611,11.702611 0 0 0 299.58683,1213.8 v 51.7992 a 46.370424,46.370424 0 0 1 -79.15926,32.7889 l -96.54623,-96.5463 a 23.405221,23.405221 0 0 1 -6.85523,-16.55 v -125.5443 a 23.405221,23.405221 0 0 1 6.85523,-16.55 l 96.54623,-96.54619 a 46.370424,46.370424 0 0 1 79.15926,32.78884 z"
       id="path9344" />
    <path
       d="m 58.854769,1122.5197 a 58.854769,58.854769 0 0 0 -117.709538,0 58.854769,58.854769 0 0 0 117.709538,0 z"
       id="path9346" />
  </g>
</svg>
