<?xml version="1.0" encoding="UTF-8"?>
<svg width="100" height="100" version="1.1" viewBox="0 0 26.458 26.458" xmlns="http://www.w3.org/2000/svg"><g transform="translate(-7.1968 -59.652)"><g transform="matrix(.037058 0 0 .037058 20.426 31.283)"><path d="m137.14 1211.3v-177.52a35.345 35.345 0 0 1 10.352-24.993l110.4-110.4a17.673 17.673 0 0 1 30.169 12.496v92.545a8.8363 8.8363 0 0 0 8.8363 8.8363h47.716a8.8363 8.8363 0 0 0 8.8363-8.8363v-198.99a35.345 35.345 0 0 0-35.345-35.345h-198.99a8.8363 8.8363 0 0 0-8.8363 8.8363v47.716a8.8363 8.8363 0 0 0 8.8363 8.8363h92.545a17.673 17.673 0 0 1 12.496 30.169l-110.4 110.4a35.345 35.345 0 0 1-24.993 10.352h-177.52a35.345 35.345 0 0 1-24.993-10.352l-110.4-110.4a17.673 17.673 0 0 1 12.496-30.169h92.545a8.8363 8.8363 0 0 0 8.8363-8.8363v-47.716a8.8363 8.8363 0 0 0-8.8363-8.8363h-198.99a35.345 35.345 0 0 0-35.345 35.345v198.99a8.8363 8.8363 0 0 0 8.8363 8.8363h47.716a8.8363 8.8363 0 0 0 8.8363-8.8363v-92.545a17.673 17.673 0 0 1 30.169-12.496l110.4 110.4a35.345 35.345 0 0 1 10.352 24.993v177.52a35.345 35.345 0 0 1-10.352 24.993l-110.4 110.4a17.673 17.673 0 0 1-30.169-12.496v-92.544a8.8363 8.8363 0 0 0-8.8363-8.8363h-47.716a8.8363 8.8363 0 0 0-8.8363 8.8363v198.99a35.345 35.345 0 0 0 35.345 35.345h198.99a8.8363 8.8363 0 0 0 8.8363-8.8363v-47.716a8.8363 8.8363 0 0 0-8.8363-8.8364h-92.545a17.673 17.673 0 0 1-12.496-30.169l110.4-110.4a35.345 35.345 0 0 1 24.993-10.352h177.52a35.345 35.345 0 0 1 24.993 10.352l110.4 110.4a17.673 17.673 0 0 1-12.496 30.169h-92.545a8.8363 8.8363 0 0 0-8.8363 8.8364v47.716a8.8363 8.8363 0 0 0 8.8363 8.8363h198.99a35.345 35.345 0 0 0 35.345-35.345v-198.99a8.8363 8.8363 0 0 0-8.8363-8.8363h-47.716a8.8363 8.8363 0 0 0-8.8363 8.8363v92.544a17.673 17.673 0 0 1-30.169 12.496l-110.4-110.4a35.345 35.345 0 0 1-10.352-24.993z"/><path d="m74.225 1122.5a74.225 74.225 0 0 0-148.45 0 74.225 74.225 0 0 0 148.45 0z"/></g></g></svg>
