<?xml version="1.0" encoding="UTF-8" standalone="no"?>
<!-- Created with Inkscape (http://www.inkscape.org/) -->

<svg
   width="187.30003mm"
   height="187.30003mm"
   viewBox="0 0 187.30003 187.30003"
   version="1.1"
   id="svg4290"
   xml:space="preserve"
   inkscape:version="1.2.2 (732a01da63, 2022-12-09)"
   sodipodi:docname="dllpdf 2020.svg"
   xmlns:inkscape="http://www.inkscape.org/namespaces/inkscape"
   xmlns:sodipodi="http://sodipodi.sourceforge.net/DTD/sodipodi-0.dtd"
   xmlns="http://www.w3.org/2000/svg"
   xmlns:svg="http://www.w3.org/2000/svg"><sodipodi:namedview
     id="namedview4292"
     pagecolor="#ffffff"
     bordercolor="#000000"
     borderopacity="0.25"
     inkscape:showpageshadow="2"
     inkscape:pageopacity="0.0"
     inkscape:pagecheckerboard="0"
     inkscape:deskcolor="#d1d1d1"
     inkscape:document-units="mm"
     showgrid="false"
     inkscape:zoom="0.71624579"
     inkscape:cx="135.42837"
     inkscape:cy="337.17476"
     inkscape:window-width="1920"
     inkscape:window-height="991"
     inkscape:window-x="-9"
     inkscape:window-y="-9"
     inkscape:window-maximized="1"
     inkscape:current-layer="layer1" /><defs
     id="defs4287"><marker
       id="DistanceX"
       orient="auto"
       refX="0"
       refY="0"
       style="overflow:visible"><path
         d="M 3,-3 -3,3 M 0,-5 V 5"
         style="stroke:#000000;stroke-width:0.5"
         id="path4671" /></marker><pattern
       id="Hatch"
       patternUnits="userSpaceOnUse"
       width="8"
       height="8"
       x="0"
       y="0"><path
         d="M8 4 l-4,4"
         stroke="#000000"
         stroke-width="0.25"
         linecap="square"
         id="path4674" /><path
         d="M6 2 l-4,4"
         stroke="#000000"
         stroke-width="0.25"
         linecap="square"
         id="path4676" /><path
         d="M4 0 l-4,4"
         stroke="#000000"
         stroke-width="0.25"
         linecap="square"
         id="path4678" /></pattern><symbol
       id="*Model_Space" /><symbol
       id="*Paper_Space" /><symbol
       id="*Paper_Space0" /></defs><g
     inkscape:label="Layer 1"
     inkscape:groupmode="layer"
     id="layer1"
     transform="translate(-7.1969916,-59.652217)"><g
       inkscape:label="0"
       id="g4690"
       transform="matrix(0.26458333,0,0,0.26458333,100.84701,-143.69776)"
       style="stroke-width:1.00157481;stroke-dasharray:none"><path
         d="m 137.1397,1211.2785 v -177.5176 a 35.345283,35.345283 0 0 1 10.35239,-24.9929 L 257.89497,898.36511 a 17.672642,17.672642 0 0 1 30.16909,12.49645 v 92.54454 a 8.836321,8.836321 0 0 0 8.83632,8.8363 h 47.71613 a 8.836321,8.836321 0 0 0 8.83632,-8.8363 V 804.41214 A 35.345283,35.345283 0 0 0 318.10755,769.06685 H 119.1136 a 8.836321,8.836321 0 0 0 -8.83632,8.83632 v 47.71614 a 8.836321,8.836321 0 0 0 8.83632,8.83632 h 92.54453 a 17.672642,17.672642 0 0 1 12.49644,30.16908 L 113.75169,975.02759 a 35.345283,35.345283 0 0 1 -24.992888,10.3524 H -88.758802 a 35.345283,35.345283 0 0 1 -24.992888,-10.3524 L -224.15457,864.62471 a 17.672642,17.672642 0 0 1 12.49644,-30.16908 h 92.54453 a 8.836321,8.836321 0 0 0 8.83632,-8.83632 v -47.71614 a 8.836321,8.836321 0 0 0 -8.83632,-8.83632 h -198.99395 a 35.345283,35.345283 0 0 0 -35.34528,35.34529 v 198.99396 a 8.836321,8.836321 0 0 0 8.83632,8.8363 h 47.71613 a 8.836321,8.836321 0 0 0 8.83632,-8.8363 v -92.54454 a 17.672642,17.672642 0 0 1 30.16909,-12.49645 l 110.40288,110.40289 a 35.345283,35.345283 0 0 1 10.35239,24.9929 v 177.5176 a 35.345283,35.345283 0 0 1 -10.35239,24.9929 l -110.40288,110.4029 a 17.672642,17.672642 0 0 1 -30.16909,-12.4965 v -92.5445 a 8.836321,8.836321 0 0 0 -8.83632,-8.8363 h -47.71613 a 8.836321,8.836321 0 0 0 -8.83632,8.8363 v 198.9939 a 35.345283,35.345283 0 0 0 35.34528,35.3453 h 198.99395 a 8.836321,8.836321 0 0 0 8.83632,-8.8363 v -47.7161 a 8.836321,8.836321 0 0 0 -8.83632,-8.8364 h -92.54453 a 17.672642,17.672642 0 0 1 -12.49644,-30.169 l 110.40288,-110.4029 a 35.345283,35.345283 0 0 1 24.992888,-10.3524 H 88.758802 a 35.345283,35.345283 0 0 1 24.992888,10.3524 l 110.40288,110.4029 a 17.672642,17.672642 0 0 1 -12.49644,30.169 H 119.1136 a 8.836321,8.836321 0 0 0 -8.83632,8.8364 v 47.7161 a 8.836321,8.836321 0 0 0 8.83632,8.8363 h 198.99395 a 35.345283,35.345283 0 0 0 35.34528,-35.3453 v -198.9939 a 8.836321,8.836321 0 0 0 -8.83632,-8.8363 h -47.71613 a 8.836321,8.836321 0 0 0 -8.83632,8.8363 v 92.5445 a 17.672642,17.672642 0 0 1 -30.16909,12.4965 L 147.49209,1236.2714 a 35.345283,35.345283 0 0 1 -10.35239,-24.9929 z"
         style="fill:none;stroke:#000000;stroke-width:1.00157481;stroke-dasharray:none"
         id="path4686" /><path
         d="m 74.225095,1122.5197 a 74.225095,74.225095 0 0 0 -148.45019,0 74.225095,74.225095 0 0 0 148.45019,0 z"
         style="fill:none;stroke:#000000;stroke-width:1.00157481;stroke-dasharray:none"
         id="path4688" /></g></g></svg>
