<?xml version="1.0" encoding="UTF-8" standalone="no"?>
<!-- Created with Inkscape (http://www.inkscape.org/) -->

<svg
   width="189.21701mm"
   height="94.740791mm"
   viewBox="0 0 189.21701 94.740791"
   version="1.1"
   id="svg13030"
   xml:space="preserve"
   inkscape:version="1.2.2 (732a01da63, 2022-12-09)"
   sodipodi:docname="dllpdf2040.svg"
   xmlns:inkscape="http://www.inkscape.org/namespaces/inkscape"
   xmlns:sodipodi="http://sodipodi.sourceforge.net/DTD/sodipodi-0.dtd"
   xmlns="http://www.w3.org/2000/svg"
   xmlns:svg="http://www.w3.org/2000/svg"><sodipodi:namedview
     id="namedview13032"
     pagecolor="#ffffff"
     bordercolor="#000000"
     borderopacity="0.25"
     inkscape:showpageshadow="2"
     inkscape:pageopacity="0.0"
     inkscape:pagecheckerboard="0"
     inkscape:deskcolor="#d1d1d1"
     inkscape:document-units="mm"
     showgrid="false"
     inkscape:zoom="2.8649832"
     inkscape:cx="82.897521"
     inkscape:cy="63.525679"
     inkscape:window-width="2560"
     inkscape:window-height="1369"
     inkscape:window-x="2552"
     inkscape:window-y="1072"
     inkscape:window-maximized="1"
     inkscape:current-layer="layer1" /><defs
     id="defs13027"><marker
       id="DistanceX"
       orient="auto"
       refX="0"
       refY="0"
       style="overflow:visible"><path
         d="M 3,-3 -3,3 M 0,-5 V 5"
         style="stroke:#000000;stroke-width:0.5"
         id="path13405" /></marker><pattern
       id="Hatch"
       patternUnits="userSpaceOnUse"
       width="8"
       height="8"
       x="0"
       y="0"><path
         d="M8 4 l-4,4"
         stroke="#000000"
         stroke-width="0.25"
         linecap="square"
         id="path13408" /><path
         d="M6 2 l-4,4"
         stroke="#000000"
         stroke-width="0.25"
         linecap="square"
         id="path13410" /><path
         d="M4 0 l-4,4"
         stroke="#000000"
         stroke-width="0.25"
         linecap="square"
         id="path13412" /></pattern><symbol
       id="*Model_Space" /><symbol
       id="*Paper_Space" /><symbol
       id="*Paper_Space0" /></defs><g
     inkscape:label="Layer 1"
     inkscape:groupmode="layer"
     id="layer1"
     transform="translate(-7.3467268,-95.588559)"><g
       inkscape:label="0"
       id="g13428"
       transform="matrix(0.26458333,0,0,0.26458333,54.717123,-154.04104)"><path
         d="m 159.15234,1262.7352 -82.508002,-82.508 a 17.853772,17.853772 0 0 1 -5.229249,-12.6245 v -90.166 a 17.853772,17.853772 0 0 1 5.229249,-12.6246 l 82.508002,-82.50797 a 8.926886,8.926886 0 0 1 6.31226,-2.61462 h 26.14624 a 8.926886,8.926886 0 0 1 6.31227,2.61462 l 82.508,82.50797 a 17.853772,17.853772 0 0 1 5.22925,12.6246 v 90.166 a 17.853772,17.853772 0 0 1 -5.22925,12.6245 l -82.508,82.508 a 8.926886,8.926886 0 0 1 -6.31227,2.6147 H 165.4646 a 8.926886,8.926886 0 0 1 -6.31226,-2.6147 z"
         style="fill:none;stroke:#000000"
         id="path13420" /><path
         d="m 58.02476,1301.0574 h 241.02592 a 4.463443,4.463443 0 0 0 4.46345,-4.4634 v -26.7807 a 4.463443,4.463443 0 0 0 -4.46345,-4.4634 h -44.31722 a 8.926886,8.926886 0 0 1 -6.31226,-15.2392 l 50.94669,-50.9467 a 17.853772,17.853772 0 0 1 12.62453,-5.2292 h 90.16605 a 17.853772,17.853772 0 0 1 12.62453,5.2292 l 50.94669,50.9467 a 8.926886,8.926886 0 0 1 -6.31226,15.2392 h -44.31722 a 4.463443,4.463443 0 0 0 -4.46345,4.4634 v 26.7807 a 4.463443,4.463443 0 0 0 4.46345,4.4634 H 517.7594 a 17.853772,17.853772 0 0 0 17.85377,-17.8538 v -102.6592 a 4.463443,4.463443 0 0 0 -4.46345,-4.4634 h -26.78065 a 4.463443,4.463443 0 0 0 -4.46345,4.4634 v 44.3173 a 8.926886,8.926886 0 0 1 -15.23914,6.3122 l -50.9467,-50.9467 a 17.853772,17.853772 0 0 1 -5.22925,-12.6245 v -90.166 a 17.853772,17.853772 0 0 1 5.22925,-12.6246 l 50.9467,-50.9467 a 8.926886,8.926886 0 0 1 15.23914,6.3123 v 44.3172 a 4.463443,4.463443 0 0 0 4.46345,4.4635 h 26.78065 a 4.463443,4.463443 0 0 0 4.46345,-4.4635 V 961.83573 A 17.853772,17.853772 0 0 0 517.7594,943.98196 H 415.10021 a 4.463443,4.463443 0 0 0 -4.46345,4.46345 v 26.78065 a 4.463443,4.463443 0 0 0 4.46345,4.46345 h 44.31722 a 8.926886,8.926886 0 0 1 6.31226,15.23915 L 414.783,1045.8753 a 17.853772,17.853772 0 0 1 -12.62453,5.2293 h -90.16605 a 17.853772,17.853772 0 0 1 -12.62453,-5.2293 L 248.4212,994.92866 a 8.926886,8.926886 0 0 1 6.31226,-15.23915 h 44.31722 a 4.463443,4.463443 0 0 0 4.46345,-4.46345 v -26.78065 a 4.463443,4.463443 0 0 0 -4.46345,-4.46345 H 58.02476 a 4.463443,4.463443 0 0 0 -4.463443,4.46345 v 26.78065 a 4.463443,4.463443 0 0 0 4.463443,4.46345 h 44.31722 a 8.926886,8.926886 0 0 1 6.31227,15.23915 l -50.946697,50.94664 a 17.853772,17.853772 0 0 1 -12.624524,5.2293 h -90.166058 a 17.853772,17.853772 0 0 1 -12.624524,-5.2293 l -50.946697,-50.94664 a 8.926886,8.926886 0 0 1 6.31227,-15.23915 h 44.31722 a 4.463443,4.463443 0 0 0 4.463443,-4.46345 v -26.78065 a 4.463443,4.463443 0 0 0 -4.463443,-4.46345 h -102.65919 a 17.853772,17.853772 0 0 0 -17.85377,17.85377 v 102.65917 a 4.463443,4.463443 0 0 0 4.46344,4.4635 h 26.78066 a 4.463443,4.463443 0 0 0 4.46344,-4.4635 v -44.3172 a 8.926886,8.926886 0 0 1 15.23915,-6.3123 l 50.946692,50.9467 a 17.853772,17.853772 0 0 1 5.229249,12.6246 v 90.166 a 17.853772,17.853772 0 0 1 -5.229249,12.6245 l -50.946692,50.9467 a 8.926886,8.926886 0 0 1 -15.23915,-6.3122 v -44.3173 a 4.463443,4.463443 0 0 0 -4.46344,-4.4634 h -26.78066 a 4.463443,4.463443 0 0 0 -4.46344,4.4634 v 102.6592 a 17.853772,17.853772 0 0 0 17.85377,17.8538 h 102.65919 a 4.463443,4.463443 0 0 0 4.463443,-4.4634 v -26.7807 a 4.463443,4.463443 0 0 0 -4.463443,-4.4634 h -44.31722 a 8.926886,8.926886 0 0 1 -6.31227,-15.2392 l 50.946697,-50.9467 a 17.853772,17.853772 0 0 1 12.624524,-5.2292 h 90.166058 a 17.853772,17.853772 0 0 1 12.624524,5.2292 l 50.946697,50.9467 a 8.926886,8.926886 0 0 1 -6.31227,15.2392 H 58.02476 a 4.463443,4.463443 0 0 0 -4.463443,4.4634 v 26.7807 a 4.463443,4.463443 0 0 0 4.463443,4.4634 z"
         style="fill:none;stroke:#000000"
         id="path13422" /><path
         d="m 394.56837,1122.5197 a 37.492925,37.492925 0 0 0 -74.98585,0 37.492925,37.492925 0 0 0 74.98585,0 z"
         style="fill:none;stroke:#000000"
         id="path13424" /><path
         d="m 37.492922,1122.5197 a 37.492922,37.492922 0 0 0 -74.985844,0 37.492922,37.492922 0 0 0 74.985844,0 z"
         style="fill:none;stroke:#000000"
         id="path13426" /></g></g></svg>
