<?xml version="1.0" encoding="UTF-8"?>
<svg width="100" height="100" version="1.1" viewBox="0 0 100 100" xmlns="http://www.w3.org/2000/svg"><g transform="matrix(.14242 0 0 .14242 50 -109.87)"><path d="m299.59 1031.2a11.703 11.703 0 0 0 11.703 11.703h28.086a11.703 11.703 0 0 0 11.703-11.703v-212.99a46.81 46.81 0 0 0-46.81-46.81h-212.99a11.703 11.703 0 0 0-11.703 11.703v28.086a11.703 11.703 0 0 0 11.703 11.703h51.799a46.37 46.37 0 0 1 32.789 79.159l-96.546 96.546a23.405 23.405 0 0 1-16.55 6.8552h-125.54a23.405 23.405 0 0 1-16.55-6.8552l-96.546-96.546a46.37 46.37 0 0 1 32.789-79.159h51.799a11.703 11.703 0 0 0 11.703-11.703v-28.086a11.703 11.703 0 0 0-11.703-11.703h-212.99a46.81 46.81 0 0 0-46.81 46.81v212.99a11.703 11.703 0 0 0 11.703 11.703h28.086a11.703 11.703 0 0 0 11.703-11.703v-51.799a46.37 46.37 0 0 1 79.159-32.789l96.546 96.546a23.405 23.405 0 0 1 6.8552 16.55v125.54a23.405 23.405 0 0 1-6.8552 16.55l-96.546 96.546a46.37 46.37 0 0 1-79.159-32.789v-51.799a11.703 11.703 0 0 0-11.703-11.703h-28.086a11.703 11.703 0 0 0-11.703 11.703v212.99a46.81 46.81 0 0 0 46.81 46.81h212.99a11.703 11.703 0 0 0 11.703-11.703v-28.086a11.703 11.703 0 0 0-11.703-11.703h-51.799a46.37 46.37 0 0 1-32.789-79.159l96.546-96.546a23.405 23.405 0 0 1 16.55-6.8552h125.54a23.405 23.405 0 0 1 16.55 6.8552l96.546 96.546a46.37 46.37 0 0 1-32.789 79.159h-51.799a11.703 11.703 0 0 0-11.703 11.703v28.086a11.703 11.703 0 0 0 11.703 11.703h212.99a46.81 46.81 0 0 0 46.81-46.81v-212.99a11.703 11.703 0 0 0-11.703-11.703h-28.086a11.703 11.703 0 0 0-11.703 11.703v51.799a46.37 46.37 0 0 1-79.159 32.789l-96.546-96.546a23.405 23.405 0 0 1-6.8552-16.55v-125.54a23.405 23.405 0 0 1 6.8552-16.55l96.546-96.546a46.37 46.37 0 0 1 79.159 32.789z"/><path d="m58.855 1122.5a58.855 58.855 0 0 0-117.71 0 58.855 58.855 0 0 0 117.71 0z"/></g></svg>
