<?xml version="1.0" encoding="UTF-8"?>
<svg width="100" height="200" version="1.1" viewBox="0 0 26.458 52.916" xmlns="http://www.w3.org/2000/svg"><g transform="matrix(0 1.0014 -1.0028 0 122.35 -7.3938)"><g transform="matrix(.073994 0 0 .07389 20.594 25.874)"><path d="m159.15 1262.7-82.508-82.508a17.854 17.854 0 0 1-5.2292-12.624v-90.166a17.854 17.854 0 0 1 5.2292-12.625l82.508-82.508a8.9269 8.9269 0 0 1 6.3123-2.6146h26.146a8.9269 8.9269 0 0 1 6.3123 2.6146l82.508 82.508a17.854 17.854 0 0 1 5.2292 12.625v90.166a17.854 17.854 0 0 1-5.2292 12.624l-82.508 82.508a8.9269 8.9269 0 0 1-6.3123 2.6147h-26.146a8.9269 8.9269 0 0 1-6.3123-2.6147z"/><path d="m58.025 1301.1h241.03a4.4634 4.4634 0 0 0 4.4634-4.4634v-26.781a4.4634 4.4634 0 0 0-4.4634-4.4634h-44.317a8.9269 8.9269 0 0 1-6.3123-15.239l50.947-50.947a17.854 17.854 0 0 1 12.625-5.2292h90.166a17.854 17.854 0 0 1 12.625 5.2292l50.947 50.947a8.9269 8.9269 0 0 1-6.3123 15.239h-44.317a4.4634 4.4634 0 0 0-4.4634 4.4634v26.781a4.4634 4.4634 0 0 0 4.4634 4.4634h102.66a17.854 17.854 0 0 0 17.854-17.854v-102.66a4.4634 4.4634 0 0 0-4.4634-4.4634h-26.781a4.4634 4.4634 0 0 0-4.4634 4.4634v44.317a8.9269 8.9269 0 0 1-15.239 6.3122l-50.947-50.947a17.854 17.854 0 0 1-5.2292-12.624v-90.166a17.854 17.854 0 0 1 5.2292-12.625l50.947-50.947a8.9269 8.9269 0 0 1 15.239 6.3123v44.317a4.4634 4.4634 0 0 0 4.4634 4.4635h26.781a4.4634 4.4634 0 0 0 4.4634-4.4635v-102.66a17.854 17.854 0 0 0-17.854-17.854h-102.66a4.4634 4.4634 0 0 0-4.4634 4.4634v26.781a4.4634 4.4634 0 0 0 4.4634 4.4634h44.317a8.9269 8.9269 0 0 1 6.3123 15.239l-50.947 50.947a17.854 17.854 0 0 1-12.625 5.2293h-90.166a17.854 17.854 0 0 1-12.625-5.2293l-50.947-50.947a8.9269 8.9269 0 0 1 6.3123-15.239h44.317a4.4634 4.4634 0 0 0 4.4634-4.4634v-26.781a4.4634 4.4634 0 0 0-4.4634-4.4634h-241.03a4.4634 4.4634 0 0 0-4.4634 4.4634v26.781a4.4634 4.4634 0 0 0 4.4634 4.4634h44.317a8.9269 8.9269 0 0 1 6.3123 15.239l-50.947 50.947a17.854 17.854 0 0 1-12.625 5.2293h-90.166a17.854 17.854 0 0 1-12.625-5.2293l-50.947-50.947a8.9269 8.9269 0 0 1 6.3123-15.239h44.317a4.4634 4.4634 0 0 0 4.4634-4.4634v-26.781a4.4634 4.4634 0 0 0-4.4634-4.4634h-102.66a17.854 17.854 0 0 0-17.854 17.854v102.66a4.4634 4.4634 0 0 0 4.4634 4.4635h26.781a4.4634 4.4634 0 0 0 4.4634-4.4635v-44.317a8.9269 8.9269 0 0 1 15.239-6.3123l50.947 50.947a17.854 17.854 0 0 1 5.2292 12.625v90.166a17.854 17.854 0 0 1-5.2292 12.624l-50.947 50.947a8.9269 8.9269 0 0 1-15.239-6.3122v-44.317a4.4634 4.4634 0 0 0-4.4634-4.4634h-26.781a4.4634 4.4634 0 0 0-4.4634 4.4634v102.66a17.854 17.854 0 0 0 17.854 17.854h102.66a4.4634 4.4634 0 0 0 4.4634-4.4634v-26.781a4.4634 4.4634 0 0 0-4.4634-4.4634h-44.317a8.9269 8.9269 0 0 1-6.3123-15.239l50.947-50.947a17.854 17.854 0 0 1 12.625-5.2292h90.166a17.854 17.854 0 0 1 12.625 5.2292l50.947 50.947a8.9269 8.9269 0 0 1-6.3123 15.239h-44.317a4.4634 4.4634 0 0 0-4.4634 4.4634v26.781a4.4634 4.4634 0 0 0 4.4634 4.4634z"/><path d="m394.57 1122.5a37.493 37.493 0 0 0-74.986 0 37.493 37.493 0 0 0 74.986 0z"/><path d="m37.493 1122.5a37.493 37.493 0 0 0-74.986 0 37.493 37.493 0 0 0 74.986 0z"/></g></g></svg>
