<?xml version="1.0" encoding="UTF-8"?>
<svg width="100" height="100" version="1.1" viewBox="0 0 26.458 26.458" xmlns="http://www.w3.org/2000/svg"><g transform="translate(-9.146 -54.213)"><g transform="matrix(.037123 0 0 .037123 15.77 19.166)"><path d="m-46.262 970.69a5.931 5.931 0 0 0 5.931-5.931v-14.234a5.931 5.931 0 0 0-5.931-5.931h-107.94a23.724 23.724 0 0 0-23.724 23.724v107.94a5.931 5.931 0 0 0 5.931 5.931h14.234a5.931 5.931 0 0 0 5.931-5.931v-26.252a23.501 23.501 0 0 1 40.119-16.618l48.931 48.931a11.862 11.862 0 0 1 3.4743 8.3877v63.627a11.862 11.862 0 0 1-3.4743 8.3877l-48.931 48.931a23.501 23.501 0 0 1-40.119-16.618v-26.252a5.931 5.931 0 0 0-5.931-5.931h-14.234a5.931 5.931 0 0 0-5.931 5.931v263.34a5.931 5.931 0 0 0 5.931 5.931h14.234a5.931 5.931 0 0 0 5.931-5.931v-26.252a23.501 23.501 0 0 1 40.119-16.618l48.931 48.931a11.862 11.862 0 0 1 3.4743 8.3876v63.627a11.862 11.862 0 0 1-3.4743 8.3877l-48.931 48.93a23.501 23.501 0 0 1-40.119-16.618v-26.252a5.931 5.931 0 0 0-5.931-5.931h-14.234a5.931 5.931 0 0 0-5.931 5.931v107.94a23.724 23.724 0 0 0 23.724 23.724h107.94a5.931 5.931 0 0 0 5.931-5.931v-14.234a5.931 5.931 0 0 0-5.931-5.931h-26.252a23.501 23.501 0 0 1-16.618-40.119l48.931-48.931a11.862 11.862 0 0 1 8.3877-3.4743h63.627a11.862 11.862 0 0 1 8.3877 3.4743l48.931 48.931a23.501 23.501 0 0 1-16.618 40.119h-26.252a5.931 5.931 0 0 0-5.931 5.931v14.234a5.931 5.931 0 0 0 5.931 5.931h263.34a5.931 5.931 0 0 0 5.931-5.931v-14.234a5.931 5.931 0 0 0-5.931-5.931h-26.252a23.501 23.501 0 0 1-16.618-40.119l48.931-48.931a11.862 11.862 0 0 1 8.3877-3.4743h63.627a11.862 11.862 0 0 1 8.3877 3.4743l48.931 48.931a23.501 23.501 0 0 1-16.618 40.119h-26.252a5.931 5.931 0 0 0-5.931 5.931v14.234a5.931 5.931 0 0 0 5.931 5.931h107.94a23.724 23.724 0 0 0 23.724-23.724v-107.94a5.931 5.931 0 0 0-5.931-5.931h-14.234a5.931 5.931 0 0 0-5.931 5.931v26.252a23.501 23.501 0 0 1-40.119 16.618l-48.931-48.93a11.862 11.862 0 0 1-3.4743-8.3877v-63.627a11.862 11.862 0 0 1 3.4743-8.3876l48.931-48.931a23.501 23.501 0 0 1 40.119 16.618v26.252a5.931 5.931 0 0 0 5.931 5.931h14.234a5.931 5.931 0 0 0 5.931-5.931v-263.34a5.931 5.931 0 0 0-5.931-5.931h-14.234a5.931 5.931 0 0 0-5.931 5.931v26.252a23.501 23.501 0 0 1-40.119 16.618l-48.931-48.931a11.862 11.862 0 0 1-3.4743-8.3877v-63.627a11.862 11.862 0 0 1 3.4743-8.3877l48.931-48.931a23.501 23.501 0 0 1 40.119 16.618v26.252a5.931 5.931 0 0 0 5.931 5.931h14.234a5.931 5.931 0 0 0 5.931-5.931v-107.94a23.724 23.724 0 0 0-23.724-23.724h-107.94a5.931 5.931 0 0 0-5.931 5.931v14.234a5.931 5.931 0 0 0 5.931 5.931h26.252a23.501 23.501 0 0 1 16.618 40.119l-48.931 48.93a11.862 11.862 0 0 1-8.3877 3.4743h-63.627a11.862 11.862 0 0 1-8.3877-3.4743l-48.931-48.93a23.501 23.501 0 0 1 16.618-40.119h26.252a5.931 5.931 0 0 0 5.931-5.931v-14.234a5.931 5.931 0 0 0-5.931-5.931h-263.34a5.931 5.931 0 0 0-5.931 5.931v14.234a5.931 5.931 0 0 0 5.931 5.931h26.252a23.501 23.501 0 0 1 16.618 40.119l-48.931 48.93a11.862 11.862 0 0 1-8.3877 3.4743h-63.627a11.862 11.862 0 0 1-8.3877-3.4743l-48.931-48.93a23.501 23.501 0 0 1 16.618-40.119z"/><path d="m-35.028 1420.8-103.54-103.54a23.724 23.724 0 0 1 0-33.551l103.54-103.54a11.862 11.862 0 0 1 12.828-2.612 59.31 59.31 0 0 0 77.198-77.198 11.862 11.862 0 0 1 2.612-12.828l103.54-103.54a23.724 23.724 0 0 1 33.551 0l103.54 103.54a11.862 11.862 0 0 1 2.612 12.828 59.31 59.31 0 0 0 77.198 77.198 11.862 11.862 0 0 1 12.828 2.612l86.769 86.769a47.448 47.448 0 0 1 0 67.102l-86.769 86.768a11.862 11.862 0 0 1-12.828 2.6121 59.31 59.31 0 0 0-77.198 77.198 11.862 11.862 0 0 1-2.612 12.828l-103.54 103.54a23.724 23.724 0 0 1-33.551 0l-103.54-103.54a11.862 11.862 0 0 1-2.612-12.828 59.31 59.31 0 0 0-77.198-77.198 11.862 11.862 0 0 1-12.828-2.6121z"/><path d="m29.828 1122.5a29.828 29.828 0 0 0-59.656 0 29.828 29.828 0 0 0 59.656 0z"/><path d="m29.828 1478.4a29.828 29.828 0 0 0-59.656 0 29.828 29.828 0 0 0 59.656 0z"/><path d="m385.69 1478.4a29.828 29.828 0 0 0-59.656 0 29.828 29.828 0 0 0 59.656 0z"/><path d="m385.69 1122.5a29.828 29.828 0 0 0-59.656 0 29.828 29.828 0 0 0 59.656 0z"/></g></g></svg>
