<?xml version="1.0" encoding="UTF-8" standalone="no"?>
<!-- Created with Inkscape (http://www.inkscape.org/) -->

<svg
   width="100mm"
   height="100mm"
   viewBox="0 0 100 100"
   version="1.1"
   id="svg13469"
   xml:space="preserve"
   inkscape:version="1.2.2 (732a01da63, 2022-12-09)"
   sodipodi:docname="hfs5_4040.svg"
   xmlns:inkscape="http://www.inkscape.org/namespaces/inkscape"
   xmlns:sodipodi="http://sodipodi.sourceforge.net/DTD/sodipodi-0.dtd"
   xmlns="http://www.w3.org/2000/svg"
   xmlns:svg="http://www.w3.org/2000/svg"><sodipodi:namedview
     id="namedview13471"
     pagecolor="#ffffff"
     bordercolor="#000000"
     borderopacity="0.25"
     inkscape:showpageshadow="2"
     inkscape:pageopacity="0.0"
     inkscape:pagecheckerboard="0"
     inkscape:deskcolor="#d1d1d1"
     inkscape:document-units="mm"
     showgrid="false"
     inkscape:zoom="0.71624579"
     inkscape:cx="366.4943"
     inkscape:cy="316.93031"
     inkscape:window-width="2560"
     inkscape:window-height="1369"
     inkscape:window-x="2552"
     inkscape:window-y="1072"
     inkscape:window-maximized="1"
     inkscape:current-layer="layer1" /><defs
     id="defs13466"><marker
       id="DistanceX"
       orient="auto"
       refX="0"
       refY="0"
       style="overflow:visible"><path
         d="M 3,-3 -3,3 M 0,-5 V 5"
         style="stroke:#000000;stroke-width:0.5"
         id="path13475" /></marker><pattern
       id="Hatch"
       patternUnits="userSpaceOnUse"
       width="8"
       height="8"
       x="0"
       y="0"><path
         d="M8 4 l-4,4"
         stroke="#000000"
         stroke-width="0.25"
         linecap="square"
         id="path13478" /><path
         d="M6 2 l-4,4"
         stroke="#000000"
         stroke-width="0.25"
         linecap="square"
         id="path13480" /><path
         d="M4 0 l-4,4"
         stroke="#000000"
         stroke-width="0.25"
         linecap="square"
         id="path13482" /></pattern><symbol
       id="*Model_Space" /><symbol
       id="*Paper_Space" /><symbol
       id="*Paper_Space0" /></defs><g
     inkscape:label="Layer 1"
     inkscape:groupmode="layer"
     id="layer1"
     transform="translate(-8.4549297,-64.973592)"><g
       inkscape:label="0"
       id="g13502"
       transform="matrix(0.13983063,0,0,0.13983063,40.979436,-91.919114)"
       style="stroke-width:1.00121125;stroke-dasharray:none"><path
         d="m 0,1122.5197 1e-6,35.7075 h 53.561292 l 10e-7,17.8538 -53.561301,53.5613 -107.122533,-10e-5 -53.56125,-53.5612 2e-5,-17.8539 53.56129,10e-5 3e-5,-35.7075 -107.12259,-10e-5 a 17.853763,17.853763 0 0 0 -17.85378,17.8537 l -9e-5,107.1226 h 35.70751 l 4e-5,-53.5613 17.85381,10e-5 53.56125,53.5613 -8e-5,107.1226 -53.56128,53.5612 h -17.85381 l 4e-5,-53.5613 h -35.70753 l -1.8e-4,249.9527 h 35.70753 l 4e-5,-53.5613 h 17.85381 l 53.5612,53.5613 -7e-5,107.1226 -53.56132,53.5613 -17.85381,-10e-5 3e-5,-53.5613 h -35.70751 l -6e-5,107.1226 a 17.853763,17.853763 0 0 0 17.85375,17.8538 l 107.12259,10e-5 3e-5,-35.7076 h -53.5613 l 1e-5,-17.8538 53.56134,-53.5612 107.122574,10e-5 53.561255,53.5612 -1.2e-5,17.8538 H -3.56e-4 l -2.4e-5,35.7075 249.95268,2e-4 2e-5,-35.7075 -53.56129,-10e-5 1e-5,-17.8538 53.56132,-53.5612 107.12258,10e-5 53.56125,53.5613 -10e-6,17.8538 h -53.5613 l -1e-5,35.7075 h 107.12258 a 17.853763,17.853763 0 0 0 17.85378,-17.8537 l 7e-5,-107.1226 h -35.70753 l -3e-5,53.5613 h -17.85382 l -53.5612,-53.5614 6e-5,-107.1225 53.56132,-53.5613 h 17.85381 l -3e-5,53.5613 h 35.70752 l 4e-5,-107.1226 1.5e-4,-35.7078 V 1354.6186 H 446.3441 v 53.5613 h -17.85381 l -53.56128,-53.5613 10e-6,-107.1226 53.56123,-53.5613 h 17.85382 v 53.5613 h 35.70752 l 1e-5,-107.1225 a 17.853763,17.853763 0 0 0 -17.85377,-17.8538 H 357.07525 l -10e-6,35.7075 h 53.56129 v 17.8538 l -53.56128,53.5613 H 249.95267 l -53.56129,-53.5613 v -17.8538 h 53.56129 l 10e-6,-35.7075 z"
         style="fill:none;stroke:#000000;stroke-width:1.00121125;stroke-dasharray:none"
         id="path13490" /><path
         d="m 232.09891,1354.6186 17.85375,17.8538 h 107.12258 l 53.56128,53.5613 17.85364,17.854 h 17.85382 l -4e-5,71.4152 h -17.85382 l -71.41502,71.4149 -107.12265,-10e-5 -17.85377,17.8538 -6e-5,107.1225 -71.41506,71.4149 -1e-5,17.8539 -71.415137,-10e-5 1.1e-5,-17.8537 -71.41496,-71.4151 6.8e-5,-107.1226 -17.853743,-17.8537 -107.122579,-10e-5 -71.41495,-71.4151 h -17.85377 l 5e-5,-71.4151 h 17.85384 l 71.41499,-71.415 107.122574,1e-4 17.853775,-17.8537 5.7e-5,-107.1227 71.414994,-71.4149 v -17.8538 h 71.41514 v 17.8537 l 71.415,71.415 z"
         style="fill:none;stroke:#000000;stroke-width:1.00121125;stroke-dasharray:none"
         id="path13492" /><path
         d="m 341.0066,1658.1328 a 37.492902,37.492902 0 0 0 -74.9858,0 37.492902,37.492902 0 0 0 74.9858,0 z"
         style="fill:none;stroke:#000000;stroke-width:1.00121125;stroke-dasharray:none"
         id="path13494" /><path
         d="m -16.06839,1301.0573 a 37.492902,37.492902 0 0 0 -74.985804,0 37.492902,37.492902 0 0 0 74.985804,0 z"
         style="fill:none;stroke:#000000;stroke-width:1.00121125;stroke-dasharray:none"
         id="path13496" /><path
         d="m 341.00686,1301.0573 a 37.492902,37.492902 0 0 0 -74.9858,0 37.492902,37.492902 0 0 0 74.9858,0 z"
         style="fill:none;stroke:#000000;stroke-width:1.00121125;stroke-dasharray:none"
         id="path13498" /><path
         d="m -16.068653,1658.1326 a 37.492902,37.492902 0 0 0 -74.985804,0 37.492902,37.492902 0 0 0 74.985804,0 z"
         style="fill:none;stroke:#000000;stroke-width:1.00121125;stroke-dasharray:none"
         id="path13500" /></g></g></svg>
