<?xml version="1.0" encoding="UTF-8"?>
<svg width="100mm" height="100mm" version="1.1" viewBox="0 0 100 100" xmlns="http://www.w3.org/2000/svg"><g transform="translate(107.54 -39.115)"><g transform="matrix(.13983 0 0 .13983 -75.013 -17.917)"><path d="m482.05 783.3a17.854 17.854 0 0 0-17.854-17.854h-107.12v35.708h53.561v16.771l-54.644 54.644h-43.201l-9.2771 5.3561-9.2771-5.3561h-43.201l-54.644-54.644v-16.771h53.561v-35.708h-119.62a5.3561 5.3561 0 0 1-5.3561-5.3561v-119.62h-35.708v53.561h-16.771l-54.644-54.644v-43.201l-5.3561-9.2771 5.3561-9.2771v-43.201l54.644-54.644h16.771v53.561h35.708v-107.12a17.854 17.854 0 0 0-17.854-17.854h-107.12v35.708h53.561v16.771l-54.644 54.644h-43.201l-9.2771 5.3561-9.2771-5.3561h-43.201l-54.644-54.644v-16.771h53.561v-35.708h-107.12a17.854 17.854 0 0 0-17.854 17.854v107.12h35.708v-53.561h16.771l54.644 54.644v43.201l5.3561 9.2771-5.3561 9.2771v43.201l-54.644 54.644h-16.771v-53.561h-35.708v249.95h35.708v-53.561h16.771l54.644 54.644v104.96l-54.644 54.644h-16.771v-53.561h-35.708v107.12a17.854 17.854 0 0 0 17.854 17.854h107.12v-35.708h-53.561v-16.771l54.644-54.644h104.96l54.644 54.644v16.771h-53.561v35.708h249.95v-35.708h-53.561v-16.771l54.644-54.644h43.201l9.2771-5.3562 9.2771 5.3562h43.201l54.644 54.644v16.771h-53.561v35.708h107.12a17.854 17.854 0 0 0 17.854-17.854v-107.12h-35.708v53.561h-16.771l-54.644-54.644v-43.201l-5.3561-9.2771 5.3561-9.2771v-43.201l54.644-54.644h16.771v53.561h35.708z"/><path d="m232.1 891.5v104.96l-62.488 62.488v27.864h-89.269v-27.864l-70.332-70.332h-108.21v-108.21l-70.332-70.332h-27.864v-89.269h27.864l62.488-62.488h104.96z"/><path d="m341.01 943.98a37.493 37.493 0 0 0-74.986 0 37.493 37.493 0 0 0 74.986 0z"/><path d="m-16.068 586.91a37.493 37.493 0 0 0-74.986 0 37.493 37.493 0 0 0 74.986 0z"/></g></g></svg>
