<?xml version="1.0" encoding="UTF-8" standalone="no"?>
<!-- Created with Inkscape (http://www.inkscape.org/) -->

<svg
   width="100mm"
   height="100mm"
   viewBox="0 0 100 100"
   version="1.1"
   id="svg13547"
   xml:space="preserve"
   inkscape:version="1.2.2 (732a01da63, 2022-12-09)"
   sodipodi:docname="hfs5-404020.svg"
   xmlns:inkscape="http://www.inkscape.org/namespaces/inkscape"
   xmlns:sodipodi="http://sodipodi.sourceforge.net/DTD/sodipodi-0.dtd"
   xmlns="http://www.w3.org/2000/svg"
   xmlns:svg="http://www.w3.org/2000/svg"><sodipodi:namedview
     id="namedview13549"
     pagecolor="#ffffff"
     bordercolor="#000000"
     borderopacity="0.25"
     inkscape:showpageshadow="2"
     inkscape:pageopacity="0.0"
     inkscape:pagecheckerboard="0"
     inkscape:deskcolor="#d1d1d1"
     inkscape:document-units="mm"
     showgrid="false"
     inkscape:zoom="0.71624579"
     inkscape:cx="803.49512"
     inkscape:cy="414.66212"
     inkscape:window-width="2560"
     inkscape:window-height="1369"
     inkscape:window-x="2552"
     inkscape:window-y="1072"
     inkscape:window-maximized="1"
     inkscape:current-layer="layer1" /><defs
     id="defs13544"><marker
       id="DistanceX"
       orient="auto"
       refX="0"
       refY="0"
       style="overflow:visible"><path
         d="M 3,-3 -3,3 M 0,-5 V 5"
         style="stroke:#000000;stroke-width:0.5"
         id="path13553" /></marker><pattern
       id="Hatch"
       patternUnits="userSpaceOnUse"
       width="8"
       height="8"
       x="0"
       y="0"><path
         d="M8 4 l-4,4"
         stroke="#000000"
         stroke-width="0.25"
         linecap="square"
         id="path13556" /><path
         d="M6 2 l-4,4"
         stroke="#000000"
         stroke-width="0.25"
         linecap="square"
         id="path13558" /><path
         d="M4 0 l-4,4"
         stroke="#000000"
         stroke-width="0.25"
         linecap="square"
         id="path13560" /></pattern><symbol
       id="*Model_Space" /><symbol
       id="*Paper_Space" /><symbol
       id="*Paper_Space0" /></defs><g
     inkscape:label="Layer 1"
     inkscape:groupmode="layer"
     id="layer1"
     transform="translate(107.53761,-39.115376)"><g
       inkscape:label="0"
       id="g13576"
       transform="matrix(0.13983063,0,0,0.13983063,-75.013136,-17.917174)"><path
         d="M 482.05185,783.29801 A 17.853772,17.853772 0 0 0 464.19808,765.44424 H 357.07544 v 35.70754 h 53.56132 v 16.77076 l -54.64433,54.64433 h -43.20121 l -9.27709,5.35613 -9.27709,-5.35613 h -43.20122 l -54.64433,-54.64433 v -16.77076 h 53.56132 V 765.44424 H 130.33254 a 5.356132,5.356132 0 0 1 -5.35613,-5.35613 V 640.46783 H 89.268861 v 53.56132 H 72.498102 l -54.64433,-54.64433 v -43.20121 l -5.356131,-9.27709 5.356131,-9.2771 v -43.20121 l 54.64433,-54.64433 H 89.268861 V 533.3452 H 124.97641 V 426.22257 A 17.853772,17.853772 0 0 0 107.12263,408.36879 H 0 v 35.70755 h 53.561317 v 16.77076 l -54.64433,54.64433 h -43.201212 l -9.277092,5.35613 -9.277092,-5.35613 h -43.201211 l -54.64433,-54.64433 v -16.77076 h 53.56132 v -35.70755 h -107.12264 a 17.853772,17.853772 0 0 0 -17.85377,17.85378 V 533.3452 h 35.70755 v -53.56132 h 16.77075 l 54.64433,54.64433 v 43.20121 l 5.35614,9.2771 -5.35614,9.27709 v 43.20121 l -54.64433,54.64433 h -16.77075 v -53.56132 h -35.70755 v 249.95282 h 35.70755 v -53.56132 h 16.77075 l 54.64433,54.64433 v 104.95661 l -54.64433,54.64433 h -16.77075 v -53.56132 h -35.70755 v 107.12262 a 17.853772,17.853772 0 0 0 17.85377,17.8538 h 107.12264 v -35.7076 h -53.56132 v -16.7707 l 54.64433,-54.6443 H -1.083013 l 54.64433,54.6443 v 16.7707 H 0 v 35.7076 h 249.95281 v -35.7076 h -53.56132 v -16.7707 l 54.64433,-54.6443 h 43.20122 l 9.27709,-5.3562 9.27709,5.3562 h 43.20121 l 54.64433,54.6443 v 16.7707 h -53.56132 v 35.7076 h 107.12264 a 17.853772,17.853772 0 0 0 17.85377,-17.8538 V 997.54328 h -35.70754 v 53.56132 h -16.77076 l -54.64433,-54.64433 v -43.20122 l -5.35613,-9.27709 5.35613,-9.27709 v -43.20121 l 54.64433,-54.64433 h 16.77076 v 53.56132 h 35.70754 z"
         style="fill:none;stroke:#000000"
         id="path13568" /><path
         d="m 232.09904,891.50366 v 104.95661 l -62.4882,62.48823 v 27.8636 H 80.341975 v -27.8636 L 10.009899,988.61639 H -98.195747 V 880.41075 l -70.332073,-70.33208 h -27.86367 v -89.26886 h 27.86367 l 62.4882,-62.4882 H -1.083013 Z"
         style="fill:none;stroke:#000000"
         id="path13570" /><path
         d="m 341.00705,943.98196 a 37.492922,37.492922 0 0 0 -74.98584,0 37.492922,37.492922 0 0 0 74.98584,0 z"
         style="fill:none;stroke:#000000"
         id="path13572" /><path
         d="m -16.068395,586.90652 a 37.492922,37.492922 0 0 0 -74.985844,0 37.492922,37.492922 0 0 0 74.985844,0 z"
         style="fill:none;stroke:#000000"
         id="path13574" /></g></g></svg>
