<?xml version="1.0" encoding="UTF-8"?>
<svg width="100mm" height="100mm" version="1.1" viewBox="0 0 100 100" xmlns="http://www.w3.org/2000/svg"><g transform="translate(-8.4549 -64.974)"><g transform="matrix(.13983 0 0 .13983 40.979 -91.919)"><path d="m0 1122.5 1e-6 35.708h53.561l1e-6 17.854-53.561 53.561-107.12-1e-4 -53.561-53.561 2e-5 -17.854 53.561 1e-4 3e-5 -35.708-107.12-1e-4a17.854 17.854 0 0 0-17.854 17.854l-9e-5 107.12h35.708l4e-5 -53.561 17.854 1e-4 53.561 53.561-8e-5 107.12-53.561 53.561h-17.854l4e-5 -53.561h-35.708l-1.8e-4 249.95h35.708l4e-5 -53.561h17.854l53.561 53.561-7e-5 107.12-53.561 53.561-17.854-1e-4 3e-5 -53.561h-35.708l-6e-5 107.12a17.854 17.854 0 0 0 17.854 17.854l107.12 1e-4 3e-5 -35.708h-53.561l1e-5 -17.854 53.561-53.561 107.12 1e-4 53.561 53.561-1.2e-5 17.854h-53.561l-2.4e-5 35.708 249.95 2e-4 2e-5 -35.708-53.561-1e-4 1e-5 -17.854 53.561-53.561 107.12 1e-4 53.561 53.561-1e-5 17.854h-53.561l-1e-5 35.708h107.12a17.854 17.854 0 0 0 17.854-17.854l7e-5 -107.12h-35.708l-3e-5 53.561h-17.854l-53.561-53.561 6e-5 -107.12 53.561-53.561h17.854l-3e-5 53.561h35.708l4e-5 -107.12 1.5e-4 -35.708v-107.12h-35.707v53.561h-17.854l-53.561-53.561 1e-5 -107.12 53.561-53.561h17.854v53.561h35.708l1e-5 -107.12a17.854 17.854 0 0 0-17.854-17.854h-107.12l-1e-5 35.708h53.561v17.854l-53.561 53.561h-107.12l-53.561-53.561v-17.854h53.561l1e-5 -35.708z"/><path d="m232.1 1354.6 17.854 17.854h107.12l53.561 53.561 17.854 17.854h17.854l-4e-5 71.415h-17.854l-71.415 71.415-107.12-1e-4 -17.854 17.854-6e-5 107.12-71.415 71.415-1e-5 17.854-71.415-1e-4 1.1e-5 -17.854-71.415-71.415 6.8e-5 -107.12-17.854-17.854-107.12-1e-4 -71.415-71.415h-17.854l5e-5 -71.415h17.854l71.415-71.415 107.12 1e-4 17.854-17.854 5.7e-5 -107.12 71.415-71.415v-17.854h71.415v17.854l71.415 71.415z"/><path d="m341.01 1658.1a37.493 37.493 0 0 0-74.986 0 37.493 37.493 0 0 0 74.986 0z"/><path d="m-16.068 1301.1a37.493 37.493 0 0 0-74.986 0 37.493 37.493 0 0 0 74.986 0z"/><path d="m341.01 1301.1a37.493 37.493 0 0 0-74.986 0 37.493 37.493 0 0 0 74.986 0z"/><path d="m-16.069 1658.1a37.493 37.493 0 0 0-74.986 0 37.493 37.493 0 0 0 74.986 0z"/></g></g></svg>
